<?xml version="1.0" standalone="no"?>
<!DOCTYPE svg PUBLIC "-//W3C//DTD SVG 20010904//EN"
 "http://www.w3.org/TR/2001/REC-SVG-20010904/DTD/svg10.dtd">
<svg version="1.0" xmlns="http://www.w3.org/2000/svg"
 width="512.000000pt" height="512.000000pt" viewBox="0 0 512.000000 512.000000"
 preserveAspectRatio="xMidYMid meet">
<metadata>
Created by potrace 1.11, written by Peter Selinger 2001-2013
</metadata>
<g transform="translate(0.000000,512.000000) scale(0.100000,-0.100000)"
fill="#000000" stroke="none">
<path d="M2439 4795 c-2 -1 -23 -5 -46 -9 -24 -3 -71 -13 -105 -22 -35 -9 -67
-17 -73 -19 -56 -13 -211 -90 -286 -142 -91 -63 -169 -134 -152 -140 14 -5 39
-25 124 -100 190 -167 320 -439 334 -696 7 -116 -21 -158 -95 -142 -41 9 -57
45 -65 141 -17 217 -98 394 -253 551 -175 178 -391 264 -645 258 -62 -2 -121
-6 -132 -8 -206 -49 -337 -119 -465 -247 -167 -168 -251 -364 -255 -596 -4
-198 39 -351 144 -509 45 -69 145 -175 211 -225 58 -44 165 -97 252 -125 140
-45 150 -54 163 -145 10 -72 15 -102 25 -155 14 -75 19 -104 30 -175 5 -36 12
-74 14 -85 2 -11 11 -63 20 -115 9 -52 18 -104 20 -115 2 -11 9 -56 16 -100 7
-44 14 -89 16 -100 3 -11 7 -36 10 -55 2 -19 9 -57 14 -85 5 -27 12 -63 15
-80 7 -46 67 -398 69 -415 3 -13 39 -15 244 -18 240 -2 245 -2 244 28 -1 19
-15 223 -18 260 -4 51 -12 160 -19 270 -3 41 -7 102 -10 135 -18 214 -25 359
-19 377 8 26 61 51 91 43 49 -12 61 -36 68 -141 3 -38 7 -98 10 -134 2 -36 7
-103 10 -150 6 -81 10 -137 20 -260 2 -30 7 -95 10 -145 4 -49 8 -110 10 -135
2 -25 5 -69 6 -97 l2 -53 244 0 243 0 0 451 c0 269 4 458 10 468 5 10 23 24
40 31 38 16 87 -2 101 -37 5 -13 9 -224 9 -469 l0 -444 243 0 c188 0 244 3
244 13 4 82 14 228 18 270 3 28 7 88 10 132 3 44 7 107 10 140 3 33 7 96 10
140 20 314 24 355 41 386 8 16 18 29 22 30 4 0 17 2 30 5 35 6 79 -21 86 -53
4 -16 4 -55 2 -88 -3 -33 -8 -96 -10 -140 -3 -44 -8 -109 -11 -145 -3 -36 -7
-96 -10 -135 -7 -105 -15 -214 -20 -270 -2 -27 -7 -97 -11 -155 -3 -58 -7
-109 -8 -115 0 -6 86 -10 244 -10 156 0 245 4 246 10 0 6 4 30 8 55 4 25 10
59 12 75 3 17 7 37 9 45 2 8 6 33 10 55 3 22 8 51 10 65 7 45 46 274 50 300
30 180 67 395 75 435 5 28 12 70 15 95 3 25 8 52 10 60 2 8 6 33 10 55 7 49
11 71 35 209 12 64 27 117 37 128 9 10 35 23 57 29 202 51 369 157 491 311 97
123 162 268 185 414 12 74 6 264 -10 326 -70 264 -219 458 -450 585 -54 30
-159 71 -203 78 -12 3 -44 9 -72 14 -59 11 -253 6 -310 -8 -22 -6 -42 -11 -45
-11 -56 -14 -90 -26 -90 -33 0 -4 16 -33 35 -63 66 -102 152 -309 151 -359 -1
-11 -9 -31 -19 -45 -13 -19 -26 -25 -58 -25 -51 0 -70 21 -95 102 -57 187
-210 409 -361 524 -32 24 -59 47 -61 52 -2 4 -7 7 -12 7 -4 0 -37 17 -71 38
-101 61 -223 106 -374 137 -32 7 -301 16 -306 10z"/>
<path d="M1360 640 l0 -320 1200 0 1200 0 0 320 0 320 -1200 0 -1200 0 0 -320z"/>
</g>
</svg>
